<?xml version="1.0" encoding="utf-8"?>
<!-- Generator: Adobe Illustrator 21.0.0, SVG Export Plug-In . SVG Version: 6.00 Build 0)  -->
<svg version="1.1" id="Layer_1" xmlns:svg="http://www.w3.org/2000/svg"
	 xmlns="http://www.w3.org/2000/svg" xmlns:xlink="http://www.w3.org/1999/xlink" x="0px" y="0px" viewBox="0 0 1338 1255"
	 style="enable-background:new 0 0 1338 1255;" xml:space="preserve">
<style type="text/css">
	.st0{fill:#56C596;}
	.st1{display:none;}
	.st2{fill:#4F4F4F;}
</style>
<title>blood drop</title>
<title>Layer 1</title>
<path class="st0" d="M709.9,360.5L709.9,360.5c-107-135.8-55.8-297.2-55.8-297.2s-296.9,243-327.7,452.2s94.8,298,218,307
	c123.3,9,251.6-80.8,269-201.7C820,576.1,816.8,496.4,709.9,360.5z M737.5,560.9c-16.6,16.6-33.5,25-50.5,25c-1.9,0-3.5,0-5.4-0.4
	c-23.1-2.3-37.4-20.4-40.8-25.4c-13.9-13.5-27-19.6-38.9-18.5c-16.2,1.9-26.6,17.3-26.6,17.3c-0.4,0.4-1.2,1.2-1.5,1.5
	c-0.4,0.4-0.4,0.4-0.4,0.4c-16.6,16.6-33.5,25-50.1,25c-1.9,0-3.5,0-5.4-0.4c-23.1-2.3-37.4-20.4-40.8-25.4
	c-13.9-13.5-27-19.6-38.9-18.5c-16.2,1.9-26.6,17.3-26.6,17.3c-1.9,3.1-5,4.6-8.5,4.6c-1.9,0-3.9-0.4-5.8-1.5
	c-4.6-3.1-6.2-9.6-3.1-14.3c0.8-0.8,15.4-23.5,40.8-26.6c18.9-1.9,37.8,6.5,56.2,25c0.4,0,0.4,0.4,0.8,0.8c0.4,0.4,0.8,0.4,0.8,0.8
	c0.4,0.4,10.8,15.8,27,17.3c11.9,1.2,24.7-5,38.5-18.5c3.5-4.6,17.7-22.7,40.8-25.4c18.9-1.9,37.8,6.5,56.2,25
	c0.4,0,0.4,0.4,0.8,0.8c0.4,0.4,0.8,0.4,0.8,0.8c0.4,0.4,10.8,15.8,27,17.3c12.3,1.5,25.4-5,39.3-18.9c4.2-3.9,10.8-3.9,14.6,0
	C741.7,550.1,741.7,556.7,737.5,560.9z"/>
<path class="st1" d="M723.2,546.3c-13.9,13.9-27,20.4-39.3,18.9c-16.2-1.5-26.6-17-27-17.3c0-0.4-0.4-0.4-0.8-0.8
	c-0.4-0.4-0.4-0.8-0.8-0.8c-18.5-18.5-37.4-27-56.2-25c-23.1,2.7-37.4,20.8-40.8,25.4c-13.9,13.5-26.6,19.6-38.5,18.5
	c-16.2-1.5-26.6-17-27-17.3c0-0.4-0.4-0.4-0.8-0.8c-0.4-0.4-0.4-0.8-0.8-0.8c-18.5-18.5-37.4-27-56.2-25
	c-25.4,3.1-40.1,25.8-40.8,26.6c-3.1,4.6-1.5,11.2,3.1,14.3c1.9,1.2,3.9,1.5,5.8,1.5c3.5,0,6.5-1.5,8.5-4.6c0,0,10.4-15.4,26.6-17.3
	c11.9-1.2,25,5,38.9,18.5c3.5,5,17.7,23.1,40.8,25.4c1.9,0.4,3.5,0.4,5.4,0.4c16.6,0,33.5-8.5,50.1-25c0,0,0,0,0.4-0.4
	s1.2-1.2,1.5-1.5c0,0,10.4-15.4,26.6-17.3c11.9-1.2,25,5,38.9,18.5c3.5,5,17.7,23.1,40.8,25.4c1.9,0.4,3.5,0.4,5.4,0.4
	c17,0,33.9-8.5,50.5-25c4.2-4.2,4.2-10.8,0.4-14.6C734,542.4,727.4,542.4,723.2,546.3z"/>
<path class="st1" d="M739.8,546.3c-3.9-3.9-10.4-3.9-14.6,0c-13.9,13.9-27,20.4-39.3,18.9c-16.2-1.5-26.6-17-27-17.3l0,0
	c0-0.4-0.4-0.4-0.8-0.8c-0.4-0.4-0.4-0.8-0.8-0.8l0,0c-18.5-18.5-37.4-27-56.2-25c-23.1,2.7-37.4,20.8-40.8,25.4
	c-13.9,13.5-26.6,19.6-38.5,18.5c-16.2-1.5-26.6-17-27-17.3l0,0c0-0.4-0.4-0.4-0.8-0.8c-0.4-0.4-0.4-0.8-0.8-0.8l0,0
	c-18.5-18.5-37.4-27-56.2-25c-25.4,3.1-40.1,25.8-40.8,26.6c-3.1,4.6-1.5,11.2,3.1,14.3c1.9,1.2,3.9,1.5,5.8,1.5
	c3.5,0,6.5-1.5,8.5-4.6c0,0,10.4-15.4,26.6-17.3c11.9-1.2,25,5,38.9,18.5c3.5,5,17.7,23.1,40.8,25.4c1.9,0.4,3.5,0.4,5.4,0.4
	c16.6,0,33.5-8.5,50.1-25l0,0c0,0,0,0,0.4-0.4s1.2-1.2,1.5-1.5l0,0c0,0,10.4-15.4,26.6-17.3c11.9-1.2,25,5,38.9,18.5
	c3.5,5,17.7,23.1,40.8,25.4c1.9,0.4,3.5,0.4,5.4,0.4c17,0,33.9-8.5,50.5-25C743.7,556.7,743.7,550.1,739.8,546.3z"/>
<g>
	<path class="st2" d="M133.8,926.6c0-41,30.2-69,68.6-69c23.6,0,40,11.4,50.6,26.4l-14,7.8c-7.6-11.2-21.4-19.4-36.6-19.4
		c-29.2,0-51.4,22.4-51.4,54.2c0,31.6,22.2,54.2,51.4,54.2c15.2,0,29-8,36.6-19.4l14.2,7.8c-11.2,15.2-27.2,26.4-50.8,26.4
		C164,995.6,133.8,967.6,133.8,926.6z"/>
	<path class="st2" d="M268.2,944.8c0-28,18.4-50.6,47.8-50.6s47.8,22.6,47.8,50.6c0,28-18.4,50.8-47.8,50.8S268.2,972.8,268.2,944.8
		z M348,944.8c0-19.6-11.4-37.2-32-37.2s-32.2,17.6-32.2,37.2c0,19.8,11.6,37.4,32.2,37.4S348,964.6,348,944.8z"/>
	<path class="st2" d="M448.6,993.2v-11c-8,8.8-19,13.4-32,13.4c-16.4,0-33.8-11-33.8-32c0-21.6,17.4-31.8,33.8-31.8
		c13.2,0,24.2,4.2,32,13.2v-17.4c0-13-10.4-20.4-24.4-20.4c-11.6,0-21,4.2-29.6,13.4l-7-10.4c10.4-10.8,22.8-16,38.6-16
		c20.4,0,37.4,9.2,37.4,32.6v66.4H448.6z M448.6,972.8v-18.2c-5.8-8-16-12-26.6-12c-14,0-23.8,8.8-23.8,21.2c0,12.2,9.8,21,23.8,21
		C432.6,984.8,442.8,980.8,448.6,972.8z"/>
	<path class="st2" d="M493.4,1018l7.6-11.2c8,9.6,17.6,13.2,31.4,13.2c16,0,31-7.8,31-29v-13.8c-7,9.8-18.8,17.2-32.4,17.2
		c-25.2,0-43-18.8-43-50c0-31,17.6-50.2,43-50.2c13,0,24.6,6.4,32.4,17v-14.6h15v93.8c0,32-22.4,42-46,42
		C516,1032.4,504.8,1029.2,493.4,1018z M563.4,965.4v-42.2c-5.2-8.4-16.8-15.6-28.8-15.6c-19.4,0-31,15.4-31,36.8
		c0,21.2,11.6,36.8,31,36.8C546.6,981.2,558.2,973.8,563.4,965.4z"/>
	<path class="st0" d="M603.6,926.6c0-41,30.2-69,68.6-69c23.6,0,40,11.4,50.6,26.4l-14,7.8c-7.6-11.2-21.4-19.4-36.6-19.4
		c-29.2,0-51.4,22.4-51.4,54.2c0,31.6,22.2,54.2,51.4,54.2c15.2,0,29-8,36.6-19.4l14.2,7.8c-11.2,15.2-27.2,26.4-50.8,26.4
		C633.8,995.6,603.6,967.6,603.6,926.6z"/>
	<path class="st0" d="M804,993.2v-11c-8,8.8-19,13.4-32,13.4c-16.4,0-33.8-11-33.8-32c0-21.6,17.4-31.8,33.8-31.8
		c13.2,0,24.2,4.2,32,13.2v-17.4c0-13-10.4-20.4-24.4-20.4c-11.6,0-21,4.2-29.6,13.4l-7-10.4c10.4-10.8,22.8-16,38.6-16
		c20.4,0,37.4,9.2,37.4,32.6v66.4H804z M804,972.8v-18.2c-5.8-8-16-12-26.6-12c-14,0-23.8,8.8-23.8,21.2c0,12.2,9.8,21,23.8,21
		C788,984.8,798.2,980.8,804,972.8z"/>
	<path class="st0" d="M849,993.2v-96.6h15v15.6c7.8-10.2,19-17.6,32.2-17.6V910c-1.8-0.4-3.6-0.6-6-0.6c-9.2,0-21.8,7.6-26.2,15.4
		v68.4H849z"/>
	<path class="st0" d="M909.4,944.8c0-28,20-50.6,47.6-50.6c29.2,0,46.4,22.8,46.4,51.8v3.8h-78.2c1.2,18.2,14,33.4,34.8,33.4
		c11,0,22.2-4.4,29.8-12.2l7.2,9.8c-9.6,9.6-22.6,14.8-38.4,14.8C930,995.6,909.4,975,909.4,944.8z M956.8,906.6
		c-20.6,0-30.8,17.4-31.6,32.2h63.4C988.4,924.4,978.8,906.6,956.8,906.6z"/>
</g>
</svg>
